<svg width="268" height="331" viewBox="0 0 268 331" fill="none" xmlns="http://www.w3.org/2000/svg">
<rect width="268" height="331" fill="#E5E5E5"/>
<path d="M209 246.5C209 293.168 168.258 331 118 331C67.7421 331 27 293.168 27 246.5C27 199.832 67.7421 162 118 162C168.258 162 209 199.832 209 246.5Z" fill="white"/>
<ellipse cx="118" cy="117.5" rx="56" ry="52.5" fill="white"/>
<line x1="173.634" y1="205.659" x2="256.634" y2="116.659" stroke="black"/>
<line x1="8.36621" y1="134.66" x2="74.3662" y2="205.66" stroke="black"/>
<line x1="228.495" y1="117.073" x2="223.495" y2="151.073" stroke="black"/>
<line x1="238" y1="133.5" x2="268" y2="133.5" stroke="black"/>
<line x1="0.16254" y1="150.527" x2="32.1625" y2="161.527" stroke="black"/>
<line x1="29.4867" y1="134.115" x2="25.4867" y2="151.115" stroke="black"/>
<path d="M91 98C91.5232 100.384 91.7192 104.396 94.4444 105.222C95.92 105.669 99.3179 108.32 99.9444 105.5C100.561 102.724 102 101.888 102 98.5C102 94.5268 102.094 94 98 94C92.5866 94 96.0627 96.4686 93 98" stroke="black" stroke-width="3" stroke-linecap="round"/>
<path d="M130 94C122.878 88.881 126.599 97.1882 129.5 99.4444C131.76 101.202 133.109 101.13 134.056 104.444C134.559 106.206 136.888 103.895 137 103C137.326 100.391 140.6 98.4498 139.944 95.5C139.123 91.8017 132.354 96.0605 131 92" stroke="#0D0C0C" stroke-width="3" stroke-linecap="round"/>
<path d="M114 125C114 121.494 112.914 115.476 118.444 117.056C120.793 117.727 120 121.725 120 123.5C120 126.788 119.644 128.214 116 128C113.355 127.844 114.673 122.891 112 122" stroke="black" stroke-width="3" stroke-linecap="round"/>
<path d="M100.667 129.333C102.001 136.06 101.852 143.387 109.037 146C113.549 147.641 117.581 147.333 122.296 147.333C126.254 147.333 130.145 145.606 132.148 142C133.73 139.152 136.667 130.075 136.667 133.333" stroke="#FA1616" stroke-width="3" stroke-linecap="round"/>
<path d="M124.667 282C121.834 284.016 114.456 287.167 116.815 291.704C117.756 293.513 120.299 293.857 122 292.852C128.342 289.104 124.508 282.667 118.667 282.667" stroke="#FD0C0C" stroke-width="3" stroke-linecap="round"/>
<path d="M117.333 242C116.638 243.162 109.197 252.628 113.482 253.852C115.939 254.554 119.127 252.291 120.222 250.296C123.944 243.517 116.518 242.795 112 244" stroke="#F71616" stroke-width="3" stroke-linecap="round"/>
<path d="M118 207.333C116.292 208.589 106.474 214.458 112.778 216.296C115.115 216.978 118.124 216.31 119.852 214.519C123.593 210.639 119.613 207.785 116 207.333" stroke="#F31313" stroke-width="3" stroke-linecap="round"/>
<path d="M117 0L154.239 70.5H79.7609L117 0Z" fill="#0C0C0C"/>
</svg>
